<?xml version="1.0" encoding="utf-8"?>
<!-- Generator: Adobe Illustrator 16.0.0, SVG Export Plug-In . SVG Version: 6.00 Build 0)  -->
<!DOCTYPE svg PUBLIC "-//W3C//DTD SVG 1.1//EN" "http://www.w3.org/Graphics/SVG/1.1/DTD/svg11.dtd">
<svg version="1.1" id="Layer_1" xmlns="http://www.w3.org/2000/svg" xmlns:xlink="http://www.w3.org/1999/xlink" x="0px" y="0px"
	 width="426.2px" height="344.193px" viewBox="0 0 426.2 344.193" enable-background="new 0 0 426.2 344.193" xml:space="preserve">
<g>
	<g>
		<g>
			<path d="M98.963,60.539c3.073-0.633,6.36-0.585,9.594-0.958c4.504-0.584,8.001-2.815,10.394-5.779
				c0.954-1.223,1.751-2.493,2.335-3.919c-0.746,0.102-1.542,0.203-2.335,0.311c-5.994,0.743-12.986,1.545-17.818,1.545
				c0-2.338-0.26-4.668-0.684-7.112c-0.373-1.804-0.904-3.499-1.485-5.137c-0.901-2.499-1.802-4.88-2.02-7.529l-0.156-0.373
				c-1.375,2.697-1.589,6.041-3.021,8.961c-2.655,7.105-4.083,15.157,0.266,21.783C95.568,61.437,97.212,60.906,98.963,60.539z"/>
			<path d="M118.95,45.955c1.801-0.528,3.442-1.223,4.931-2.175c0.427-0.211,0.793-0.475,1.11-0.743
				c3.028-2.915,6.21-7.473,6.21-11.664l-7.32,2.225l-4.931,1.542l-5.248,1.59c1.271-8.386-0.104-16.33-2.44-24.337l-0.104-0.483
				c-4.564,12.254-11.56,23.071-5.62,36.483C109.887,47.545,114.711,47.169,118.95,45.955z"/>
			<path d="M123.881,30.051c3.073-1.596,5.728-3.716,7.53-7.049c1.909-3.188,3.282-7.219,4.615-11.091
				c0.734-2.276,1.533-4.505,2.384-6.513c-0.851,0.102-1.649,0.206-2.384,0.421c-4.824,1.328-8.114,4.711-12.145,8.061
				c-0.056,0.101-0.158,0.164-0.265,0.259c-1.695,2.231-3.395,5.205-4.666,8.332c-1.43,3.55-2.393,7.36-2.333,10.757
				c0.797-0.316,1.54-0.635,2.333-0.907C120.645,31.641,122.339,30.899,123.881,30.051z"/>
			<path d="M83.158,84.816c3.666-4.88,10.292-5.566,15.166-8.958c0.215-0.107,0.424-0.265,0.639-0.421
				c3.759-2.759,6.735-6.577,7.631-11.351c-2.437,0.054-5.089,0.588-7.631,1.274c-4.087,1.056-7.956,2.438-10.552,2.804
				c0.952-6.252-3.236-11.974-4.087-17.806l-0.311-0.373c-0.745,2.121-1.542,4.191-2.389,6.36
				c-1.375,3.658-2.757,7.532-3.553,11.819c-0.427,5.2,0.796,11.297,3.553,15.008C82.096,83.811,82.63,84.387,83.158,84.816z"/>
			<path d="M81.625,156.769c0.847,0.74,1.804,1.477,2.857,2.164c5.57-9.32,12.679-19.824,9.439-32.388h-0.262
				c-2.808,6.733-8.165,11.876-12.034,17.231c-0.263,0.42-0.531,0.788-0.799,1.169l-14.418-15.271
				c0.212,6.789,2.544,14.781,7.688,19.938C77.12,151.945,78.97,154.434,81.625,156.769z"/>
			<path d="M80.405,138.686c0.421-0.576,0.85-1.223,1.22-1.802c6.521-9.385,12.296-20.939,10.975-34.091l-0.107-0.271
				c0,0-0.313,0.271-0.313,0.85c-3.446,4.355-7.697,8.806-10.554,13.573c-0.799,1.331-1.486,2.706-2.067,4.141
				c-3.129-6.044-8.854-9.123-12.198-14.48c-0.37,0.695,0,1.172-0.579,2.121C65.933,121.294,71.971,130.727,80.405,138.686z"/>
			<path d="M79.346,112.124c0.528-1.752,1.322-3.339,2.279-4.824c1.324-1.966,2.912-3.765,4.722-5.566
				c5.931-6.095,10.44-10.927,12.616-18.772c0.104-0.421,0.209-0.851,0.313-1.277c-0.104,0.059-0.209,0.107-0.313,0.107
				c-6.84,2.551-13.096,5.572-17.338,10.184c-0.37,0.427-0.743,0.901-1.113,1.378l-7.797-13.52
				c-0.952,4.406-1.429,8.639-2.118,13.52C69.8,101.524,73.722,107.777,79.346,112.124z"/>
			<path d="M299.219,19.813c1.426,2.333,2.32,5.146,4.082,7.476c0.998,0.847,1.91,1.749,2.855,2.657
				c2.6,2.328,5.203,4.338,8.008,4.455c0-4.455-0.27-9.075-2.123-13.737c-1.586-2.861-3.549-5.296-5.885-7.374
				c-3.654-3.285-8.158-5.62-13.297-6.996c-0.168-0.054-0.275-0.054-0.377-0.108l-0.584,0.274c0.318,0.313,0.631,0.687,0.961,1.059
				C295.821,11.061,297.364,15.15,299.219,19.813z"/>
			<path d="M348.53,96.692c-2.553-1.856-4.729-3.657-7.699-5.358c-2.596-1.262-6.143-3.391-8.484-3.759
				c-0.154-0.054-0.316-0.054-0.475-0.054c0.055,1.122,0.213,2.175,0.475,3.233c2.125,8.906,10.396,14.212,16.184,21.106
				c1.053,1.324,2.057,2.649,2.918,4.083c6.137-8.645,11.492-21.109,7.57-33.092l-0.264-0.102l-0.58,0.102l-8.855,14.474
				C349.055,97.119,348.79,96.907,348.53,96.692z"/>
			<path d="M348.53,119.179c-3.246-4.194-8.854-7.529-10.82-11.721l-0.746-0.158c-0.908,4.663,0.268,9.809,2.494,14.26
				c2.604,5.832,6.52,10.018,9.072,15.753c0.473,1.107,0.898,2.217,1.273,3.446c7.781-8.278,14.682-17.344,14.781-29.592
				l-14.312,10.978C349.852,121.085,349.215,120.077,348.53,119.179z"/>
			<path d="M319.358,54.537c-2.799-0.155-5.617-0.048-8.105,0.116c2.121,3.553,4.928,5.886,8.105,7.625
				c4.039,2.237,8.645,3.508,12.988,4.991c2.076,0.74,4.145,1.536,6.053,2.542c3.133-10.5,3.5-22.001-2.02-32.019
				c-1.908,1.748-3.18,4.084-4.033,6.679c-1.316,4.132-1.533,8.857-1.316,12.616C327.579,55.449,323.44,54.764,319.358,54.537z"/>
			<path d="M306.157,36.886l-7.947-1.537c0.314,0.689,0.695,0.689,0.789,1.701c2.076,3.019,4.352,5.773,7.158,7.896
				c2.658,2.067,5.674,3.556,9.279,4.344c1.318,0.273,2.648,0.483,3.922,0.748c2.869,0.579,5.568,1.218,7.738,2.44
				c-0.152-0.85,0-1.325-0.367-2.494c1.746-11.771,0.691-22.803-4.4-33.772h-0.262c-1.109,1.48-2.018,3.175-2.709,4.982
				c-2.172,5.513-2.604,12.201-2.428,17.773L306.157,36.886z"/>
			<path d="M324.077,69.125c1.855,3.711,3.607,6.626,6.527,9.758c0.576,0.475,1.166,0.952,1.742,1.435
				c1.969,1.74,3.709,3.759,6.154,5.558c3.281,1.748,6.631,4.299,9.65,5.942c0.164-0.163,0.266-0.321,0.379-0.536
				c6.566-10.489,4.93-23.43,0.199-35.091l-0.199-0.373c0,0,0,0,0,0.054c-2.717,6.151-6.428,11.718-6.902,18.713l-9.281-2.912
				L324.077,69.125z"/>
			<path d="M350.379,184.809c-0.639,0-1.223,0.059-1.85,0.102c-5.945,0.488-11.619,1.654-16.184,4.244
				c-0.262,0.113-0.475,0.269-0.742,0.43l-7.201-20.519l-0.109-0.367c-0.482,0.367-1.062,0.952-1.535,1.743
				c-8.117,9.71,3.869,23.125-1.018,33.877c2.336-2.223,5.355-2.811,8.863-3.49c0.576-0.266,1.166-0.479,1.742-0.749
				c6.154-2.596,12.039-5.451,16.184-10.013c1.43-1.604,2.643-3.402,3.598-5.512C351.448,184.441,351.071,184.441,350.379,184.809z"
				/>
			<path d="M294.334,244.881c-0.477-0.209-1.002-0.367-1.475-0.533c-4.783-1.531-9.602-2.811-14.371-3.232c0,0,0-0.318,0.254-0.793
				c4.988-6.301,1.281-16.805,7.007-22.852l-0.158-0.102c-6.516,2.86-10.604,7.95-13.794,13.844c-2.965,5.398-5.199,11.496-8,17.006
				c2.646,0.109,5.357,0.639,8,1.338c6.045,1.529,12.203,3.807,18.346,3.016c0.902-0.213,1.811-0.426,2.717-0.637
				c3.861-1.17,7.148-3.191,9.055-6.467C299.584,245.68,297.143,245.092,294.334,244.881z"/>
			<path d="M81.625,174.841c3.502,2.333,8.058,3.821,12.296,4.352c4.191-10.128,6.843-21.213,2.866-31.82l-0.313-0.207
				c-1.062,2.127-1.276,4.403-2.553,6.417c-2.327,3.813-4.824,7.31-6.891,11.393c-1.802-1.265-3.601-2.434-5.405-3.544
				c-3.768-2.336-7.369-4.663-10.549-8.801c1.48,7.581,3.392,15.047,7.999,20.146C79.874,173.517,80.718,174.211,81.625,174.841z"/>
			<path d="M319.358,209.249c-1.166,0.325-2.268,0.642-3.336,1.017c2.336-7.004-0.949-13.736-0.586-20.682l-0.105-0.271
				c-5.986,4.562-7.75,11.562-9.174,18.826c-0.996,5.254-1.908,10.605-4.242,15.057c1.436-0.319,2.814-0.525,4.242-0.734
				c1.484-0.217,3.029-0.373,4.613-0.424c2.971-0.703,5.891-1.434,8.588-2.338c5.045-1.746,9.545-4.036,12.988-7.482
				c1.6-1.578,2.975-3.439,4.033-5.566c-1.26,0.164-2.652,0.322-4.033,0.483C328.002,207.668,323.44,208.246,319.358,209.249z"/>
			<path d="M361.456,135.511c-5.611,2.432-9.051,6.838-12.926,10.597c-0.113,0.102-0.168,0.163-0.215,0.256l-11.352-17.484h-0.42
				c-6.527,13.627,6.521,22.689,7.312,34.721c1.584-1.265,3.131-2.649,4.674-4.137c2.918-2.754,5.875-5.779,9.055-8.422
				c3.984-4.09,6.783-11.085,6.098-17.285C362.846,134.124,362.358,134.814,361.456,135.511z"/>
			<path d="M340.362,170.018c-2.652-6.417-7-12.723-7.217-20.035l-0.217-0.268l-0.469,0.268c-0.055,0.054-0.113,0.156-0.113,0.204
				c-0.316,0.698-0.684,1.115-1.316,1.864c-4.086,9.337-2.227,19.872,1.316,28.991c0.582,1.502,1.174,2.929,1.865,4.357
				c4.135-3.984,9.59-5.459,14.318-8.538c0.42-0.319,0.838-0.579,1.273-0.906c4.451-3.971,6.781-10.015,7.467-15.635
				c-3.016,1.319-5.992,2.44-8.74,3.812C345.561,165.563,342.743,167.374,340.362,170.018z"/>
			<path d="M319.358,228.609c-4.451,0.373-8.801-0.855-13.201-1.488c-2.914-0.373-5.885-0.475-8.906,0.373
				c-0.107-0.48-0.107-0.805,0-1.269c4.289-6.321,1.273-15.587,5.252-21.431c-1.375,0-1.963,0.904-3.504,1.17
				c-2.646,1.488-4.613,3.499-6.139,5.939c-4.566,7.055-5.356,17.178-9.129,24.545c2.914-0.221,5.992,0,9.129,0.275
				c4.391,0.361,8.896,0.891,13.297,0.307c2.758-0.367,5.414-1.168,8.008-2.648c1.484-1.115,4.193-2.598,5.193-4.406
				c0.268-0.469,0.43-0.951,0.373-1.42C319.625,228.557,319.522,228.557,319.358,228.609z"/>
			<path d="M103.792,199.766c0,0,0-0.324,0.155-0.794c2.646-11.037,6.253-23.599-1.172-33.032h-0.259l-3.553,11.494l-2.488,7.965
				c-4.251-2.229-9.973-3.392-14.85-4.092c-1.802-0.266-3.505-0.421-4.985-0.579c0.37,0.799,0.584,0.9,1.432,1.853
				c1.003,1.975,2.178,3.654,3.553,5.143c4.558,4.942,10.868,7.523,17.338,10.128C100.55,198.488,102.194,199.119,103.792,199.766z"
				/>
			<path d="M258.227,251.031c-0.215-0.211-0.215-0.582-0.215-0.953c2.342-1.588,3.502-4.609,5.361-7.42
				c0.424-4.877,2.33-10.391,3.34-14.326c-10.022,3.248-15.793,12.672-21.631,20.941c-17.705,9.553-39.231,11.408-58.108,2.352
				c-9.647-7.801-12.777-20.262-24.921-24.131c-0.107,0.098-0.208,0.098-0.373,0.098c0,0.74,0.266,1.332,0.85,1.758
				c1.062,8.432,5.94,15.273,8.959,20.303c-5.457,1.326-10.551,3.711-15.85,5.09c-3.079,0.797-6.148,1.283-9.43,0.961
				c0.942,0.203,1.638,0.686,2.694,1.75c2.12,1.482,4.405,2.537,6.735,3.229c8.961,2.709,19.188-0.053,27.412-4.871
				c6.942,0,14.63,2.223,19.668,5.238l-18.982,5.943c0,0,0,0.584,0,1.059c0.907,2.551,1.489,5.838,4.188,7.107
				c7.111-3.711,15.375-6.631,22.481-10.492c9.603,0.461,18.453,8.156,27.201,11.283c0.799-0.312,1.539-0.471,1.635-0.791
				l3.033-5.84c-4.668-4.4-13.736-4.078-18.88-7.473c6.31-3.02,13.737-3.926,20.738-5.939c6.194-0.096,9.218,5.143,15.263,6.686
				c3.762,0.906,8.269,0.953,12.4,0.051c2.972-0.633,5.793-1.803,8.016-3.455c-3.084-0.68-5.566-1.957-8.016-3.281
				C267.618,253.635,263.743,251.086,258.227,251.031z"/>
			<path d="M118.95,218.744c1.751-0.104,3.442-0.266,4.931-0.418c0.161,0,0.316,0,0.427,0c-0.158-0.436-0.266-0.855-0.427-1.276
				c-2.172-6.954-2.705-15.223-4.931-22.063c-1.328-4.074-3.288-7.732-6.521-10.277h-0.584l-2.333,21.686l-10.549-1.855
				l-7.157-1.277c2.861,1.799,4.872,4.719,7.157,7.578c1.429,1.812,3.021,3.605,4.984,4.981
				C107.871,218.744,113.702,219.007,118.95,218.744z"/>
			<path d="M144.721,234.123c-2.971-7.217-4.88-15.379-8.695-21.844c-2.39-4.033-5.519-7.422-10.077-9.489
				c2.333,5.513,3.022,13.612,2.915,19.454c-1.644-0.207-3.287-0.156-4.982,0.053c-1.644,0.164-3.284,0.475-4.931,0.898
				c-3.875,0.855-7.688,1.963-11.19,1.963c3.025,2.803,6.895,5.193,11.19,6.953c1.589,0.631,3.233,1.156,4.931,1.639
				c3.977,1.113,8.111,1.645,12.145,1.59C138.991,235.34,141.962,234.91,144.721,234.123z"/>
			<path d="M165.075,246.736c-3.284-6.307-5.618-13.729-9.436-19.615c-2.658-4.084-5.99-7.422-10.919-9.168h-0.268
				c3.977,6.62,2.699,14.314,4.88,21.412c-4.138,1.33-8.803,3.029-13.308,3.713c-3.076,0.48-6.101,0.48-8.699-0.42
				c2.335,2.061,4.666,3.711,7.476,5.465c0.373,0.312,0.793,0.578,1.223,0.842c6.1,3.814,12.929,2.66,19.614,0.688
				C158.817,248.701,162.005,247.6,165.075,246.736z"/>
		</g>
		<g>
			<path fill="#010101" d="M195.911,144.223l-1.764,24.819h-65.224v-4.176c0.941-0.078,2.303-0.215,4.087-0.412
				c1.784-0.196,3.029-0.45,3.735-0.765c1.176-0.509,2.029-1.254,2.558-2.235c0.529-0.979,0.794-2.235,0.794-3.764V97.938
				c0-1.333-0.226-2.509-0.676-3.529c-0.451-1.02-1.343-1.843-2.676-2.47c-0.902-0.471-2.167-0.931-3.793-1.382
				c-1.627-0.45-2.97-0.715-4.029-0.794v-4.176h35.229v4.176c-1.098,0.04-2.52,0.235-4.264,0.588
				c-1.745,0.353-3.01,0.667-3.793,0.941c-1.333,0.47-2.245,1.274-2.735,2.411c-0.491,1.138-0.735,2.353-0.735,3.646v56.049
				c0,2.588,0.127,4.598,0.382,6.029c0.254,1.432,0.853,2.539,1.794,3.323c0.901,0.706,2.244,1.167,4.029,1.382
				c1.784,0.216,4.283,0.324,7.499,0.324c1.45,0,2.96-0.039,4.529-0.118c1.567-0.078,3.058-0.235,4.47-0.471
				c1.372-0.235,2.636-0.559,3.793-0.97c1.156-0.412,2.009-0.931,2.558-1.559c1.607-1.803,3.479-4.538,5.617-8.205
				c2.137-3.666,3.617-6.636,4.44-8.91H195.911z"/>
			<path fill="#010101" d="M302.069,169.042h-36.875v-4.176c1.332-0.039,3.048-0.176,5.146-0.412c2.097-0.235,3.538-0.568,4.323-1
				c1.215-0.744,2.107-1.597,2.676-2.558c0.568-0.96,0.853-2.166,0.853-3.617V96.584h-0.882l-28.466,71.105h-2.94L218.79,95.114
				h-0.765v49.815c0,4.823,0.304,8.489,0.911,10.998c0.607,2.51,1.539,4.313,2.795,5.411c0.861,0.823,2.646,1.608,5.352,2.353
				c2.705,0.745,4.47,1.138,5.293,1.176v4.176h-33.7v-4.176c1.764-0.156,3.617-0.45,5.558-0.882c1.941-0.431,3.44-1.078,4.499-1.94
				c1.372-1.098,2.313-2.784,2.823-5.058c0.509-2.273,0.765-6.077,0.765-11.41v-42.699c0-2.47-0.294-4.489-0.882-6.058
				c-0.588-1.568-1.432-2.842-2.529-3.823c-1.216-1.059-2.706-1.843-4.47-2.353c-1.765-0.509-3.51-0.803-5.234-0.882v-4.176h28.465
				l23.879,62.577l20.408-52.344c0.744-1.92,1.381-3.93,1.91-6.028c0.529-2.097,0.814-3.499,0.854-4.205h27.23v4.176
				c-1.098,0.04-2.5,0.216-4.205,0.529c-1.705,0.314-2.951,0.608-3.734,0.882c-1.334,0.47-2.235,1.255-2.705,2.353
				c-0.471,1.098-0.707,2.293-0.707,3.587v60.166c0,1.373,0.236,2.529,0.707,3.47c0.47,0.941,1.371,1.764,2.705,2.47
				c0.705,0.393,1.959,0.756,3.764,1.088c1.803,0.333,3.234,0.52,4.293,0.559V169.042z"/>
		</g>
	</g>
	<g>
		<path fill="#010101" d="M38.163,318.822l-0.879,12.363H4.793v-2.08c0.469-0.039,1.147-0.107,2.036-0.205
			c0.889-0.098,1.509-0.225,1.86-0.381c0.586-0.254,1.011-0.625,1.274-1.113s0.396-1.113,0.396-1.875v-29.766
			c0-0.664-0.113-1.25-0.337-1.758c-0.225-0.508-0.669-0.918-1.333-1.23c-0.45-0.234-1.08-0.465-1.89-0.689
			c-0.811-0.225-1.479-0.355-2.007-0.395v-2.08h17.549v2.08c-0.547,0.02-1.255,0.117-2.124,0.293
			c-0.869,0.176-1.499,0.332-1.89,0.469c-0.664,0.234-1.118,0.635-1.362,1.201c-0.245,0.566-0.366,1.172-0.366,1.816v27.92
			c0,1.289,0.063,2.289,0.19,3.002c0.127,0.713,0.425,1.266,0.894,1.656c0.449,0.352,1.118,0.58,2.007,0.688
			c0.889,0.107,2.134,0.162,3.735,0.162c0.722,0,1.475-0.02,2.256-0.059c0.781-0.039,1.523-0.117,2.227-0.234
			c0.684-0.117,1.313-0.279,1.89-0.484c0.576-0.205,1-0.463,1.274-0.775c0.801-0.898,1.733-2.262,2.798-4.088
			c1.064-1.826,1.802-3.305,2.212-4.438H38.163z"/>
		<path fill="#010101" d="M67.606,330.658c-0.918,0.332-1.724,0.6-2.417,0.805c-0.693,0.205-1.479,0.309-2.358,0.309
			c-1.523,0-2.739-0.357-3.647-1.07s-1.49-1.752-1.743-3.119h-0.176c-1.27,1.406-2.632,2.48-4.087,3.223
			c-1.455,0.742-3.208,1.113-5.259,1.113c-2.168,0-3.951-0.664-5.347-1.992c-1.396-1.328-2.095-3.066-2.095-5.215
			c0-1.113,0.156-2.109,0.469-2.988c0.312-0.879,0.781-1.67,1.406-2.373c0.488-0.586,1.132-1.109,1.934-1.568
			c0.801-0.459,1.553-0.824,2.256-1.098c0.879-0.332,2.661-0.947,5.347-1.846c2.685-0.898,4.497-1.602,5.435-2.109v-2.9
			c0-0.254-0.054-0.742-0.161-1.465c-0.107-0.723-0.337-1.406-0.688-2.051c-0.391-0.723-0.942-1.354-1.655-1.891
			c-0.713-0.537-1.724-0.805-3.032-0.805c-0.898,0-1.733,0.15-2.505,0.453c-0.772,0.303-1.314,0.621-1.626,0.953
			c0,0.391,0.092,0.967,0.278,1.729c0.186,0.762,0.278,1.465,0.278,2.109c0,0.684-0.308,1.309-0.923,1.875s-1.47,0.85-2.563,0.85
			c-0.977,0-1.695-0.348-2.153-1.041c-0.459-0.693-0.688-1.469-0.688-2.328c0-0.898,0.317-1.758,0.952-2.578
			c0.634-0.82,1.46-1.553,2.476-2.197c0.879-0.547,1.943-1.012,3.193-1.393c1.25-0.381,2.471-0.57,3.662-0.57
			c1.641,0,3.071,0.111,4.292,0.336c1.22,0.225,2.329,0.709,3.325,1.451c0.996,0.723,1.753,1.703,2.271,2.943
			c0.517,1.24,0.776,2.838,0.776,4.791c0,2.793-0.029,5.268-0.088,7.426s-0.088,4.518-0.088,7.076c0,0.762,0.132,1.367,0.396,1.816
			s0.669,0.83,1.216,1.143c0.293,0.176,0.757,0.273,1.392,0.293c0.634,0.02,1.284,0.029,1.948,0.029V330.658z M57.381,315.189
			c-1.66,0.488-3.116,0.967-4.365,1.436c-1.25,0.469-2.413,1.055-3.486,1.758c-0.977,0.664-1.748,1.449-2.314,2.357
			c-0.567,0.908-0.85,1.988-0.85,3.238c0,1.621,0.425,2.812,1.274,3.574s1.929,1.143,3.237,1.143c1.387,0,2.607-0.338,3.662-1.012
			s1.943-1.469,2.666-2.387L57.381,315.189z"/>
		<path fill="#010101" d="M102.118,330.658l-10.078,0.645l-0.439-0.41v-2.695l-0.234-0.059c-1.016,1.133-2.271,2.061-3.765,2.783
			s-3.032,1.084-4.614,1.084c-1.641,0-3.228-0.367-4.761-1.1c-1.534-0.732-2.867-1.762-3.999-3.09
			c-1.153-1.348-2.065-2.969-2.739-4.863s-1.011-3.984-1.011-6.27c0-2.09,0.361-4.072,1.084-5.947
			c0.722-1.875,1.718-3.516,2.988-4.922c1.191-1.309,2.651-2.354,4.38-3.135s3.491-1.172,5.288-1.172c1.348,0,2.67,0.17,3.97,0.512
			c1.299,0.342,2.417,0.777,3.354,1.305v-10.049c0-0.82-0.137-1.568-0.41-2.242c-0.274-0.674-0.655-1.186-1.143-1.537
			c-0.547-0.371-1.285-0.641-2.212-0.807c-0.928-0.166-1.929-0.287-3.003-0.365v-1.816l11.807-0.674l0.439,0.439v38.965
			c0,0.684,0.132,1.264,0.396,1.742s0.649,0.885,1.157,1.217c0.371,0.234,0.908,0.381,1.611,0.439s1.348,0.098,1.934,0.117V330.658z
			 M91.542,325.59v-16.904c-0.157-0.508-0.41-1.055-0.762-1.641s-0.791-1.123-1.318-1.611c-0.567-0.488-1.23-0.895-1.992-1.217
			s-1.651-0.482-2.666-0.482c-1.172,0-2.251,0.303-3.237,0.908c-0.986,0.605-1.86,1.475-2.622,2.607
			c-0.723,1.094-1.294,2.484-1.714,4.174c-0.42,1.689-0.63,3.561-0.63,5.611c0,1.641,0.156,3.129,0.469,4.467
			c0.312,1.338,0.839,2.584,1.582,3.736c0.684,1.094,1.557,1.973,2.622,2.637c1.064,0.664,2.329,0.996,3.794,0.996
			c1.562,0,2.856-0.342,3.882-1.025S90.838,326.41,91.542,325.59z"/>
		<path fill="#010101" d="M136.571,330.658l-10.078,0.645l-0.439-0.41v-2.695l-0.234-0.059c-1.016,1.133-2.271,2.061-3.765,2.783
			s-3.032,1.084-4.614,1.084c-1.641,0-3.228-0.367-4.761-1.1c-1.534-0.732-2.867-1.762-3.999-3.09
			c-1.153-1.348-2.065-2.969-2.739-4.863s-1.011-3.984-1.011-6.27c0-2.09,0.361-4.072,1.084-5.947
			c0.722-1.875,1.718-3.516,2.988-4.922c1.191-1.309,2.651-2.354,4.38-3.135s3.491-1.172,5.288-1.172c1.348,0,2.67,0.17,3.97,0.512
			c1.299,0.342,2.417,0.777,3.354,1.305v-10.049c0-0.82-0.137-1.568-0.41-2.242c-0.274-0.674-0.655-1.186-1.143-1.537
			c-0.547-0.371-1.285-0.641-2.212-0.807c-0.928-0.166-1.929-0.287-3.003-0.365v-1.816l11.807-0.674l0.439,0.439v38.965
			c0,0.684,0.132,1.264,0.396,1.742s0.649,0.885,1.157,1.217c0.371,0.234,0.908,0.381,1.611,0.439s1.348,0.098,1.934,0.117V330.658z
			 M125.995,325.59v-16.904c-0.157-0.508-0.41-1.055-0.762-1.641s-0.791-1.123-1.318-1.611c-0.567-0.488-1.23-0.895-1.992-1.217
			s-1.651-0.482-2.666-0.482c-1.172,0-2.251,0.303-3.237,0.908c-0.986,0.605-1.86,1.475-2.622,2.607
			c-0.723,1.094-1.294,2.484-1.714,4.174c-0.42,1.689-0.63,3.561-0.63,5.611c0,1.641,0.156,3.129,0.469,4.467
			c0.312,1.338,0.839,2.584,1.582,3.736c0.684,1.094,1.557,1.973,2.622,2.637c1.064,0.664,2.329,0.996,3.794,0.996
			c1.562,0,2.856-0.342,3.882-1.025S125.292,326.41,125.995,325.59z"/>
		<path fill="#010101" d="M165.047,324.389c-1.211,2.305-2.832,4.141-4.863,5.508c-2.032,1.367-4.365,2.051-7.002,2.051
			c-2.325,0-4.361-0.41-6.108-1.23c-1.748-0.82-3.189-1.934-4.321-3.34c-1.133-1.406-1.978-3.047-2.534-4.922
			s-0.835-3.857-0.835-5.947c0-1.875,0.297-3.717,0.894-5.523c0.596-1.807,1.469-3.432,2.622-4.877
			c1.113-1.387,2.495-2.506,4.146-3.355c1.65-0.85,3.501-1.273,5.552-1.273c2.109,0,3.916,0.332,5.42,0.996
			c1.504,0.664,2.725,1.572,3.662,2.725c0.898,1.094,1.567,2.383,2.007,3.867s0.659,3.096,0.659,4.834v1.934h-19.131
			c0,1.895,0.18,3.613,0.542,5.156c0.361,1.543,0.933,2.9,1.714,4.072c0.762,1.133,1.758,2.025,2.988,2.68s2.695,0.982,4.395,0.982
			c1.738,0,3.237-0.406,4.497-1.217s2.476-2.27,3.647-4.379L165.047,324.389z M158.573,313.373c0-1.094-0.093-2.266-0.278-3.516
			c-0.186-1.25-0.483-2.295-0.894-3.135c-0.45-0.898-1.065-1.631-1.846-2.197c-0.781-0.566-1.787-0.85-3.018-0.85
			c-2.051,0-3.755,0.854-5.112,2.562c-1.358,1.709-2.095,4.088-2.212,7.135H158.573z"/>
		<path fill="#010101" d="M190.506,306.02c0,0.996-0.245,1.879-0.732,2.65c-0.488,0.771-1.241,1.158-2.256,1.158
			c-1.094,0-1.929-0.283-2.505-0.85c-0.576-0.566-0.864-1.191-0.864-1.875c0-0.43,0.034-0.82,0.103-1.172
			c0.068-0.352,0.132-0.703,0.19-1.055c-0.918,0-1.992,0.371-3.223,1.113s-2.275,1.797-3.135,3.164v16.816
			c0,0.684,0.132,1.24,0.396,1.67s0.678,0.752,1.245,0.967c0.488,0.195,1.118,0.342,1.89,0.439c0.771,0.098,1.44,0.166,2.007,0.205
			v1.934h-15.234v-1.934c0.449-0.039,0.913-0.078,1.392-0.117c0.479-0.039,0.894-0.117,1.245-0.234
			c0.546-0.176,0.952-0.484,1.216-0.924s0.396-1.01,0.396-1.713v-17.842c0-0.605-0.142-1.201-0.425-1.787
			c-0.283-0.586-0.679-1.055-1.187-1.406c-0.371-0.234-0.811-0.406-1.318-0.514c-0.508-0.107-1.055-0.18-1.641-0.219v-1.904
			l9.609-0.645l0.41,0.41v4.072h0.146c1.211-1.582,2.559-2.783,4.043-3.604c1.484-0.82,2.842-1.23,4.072-1.23s2.231,0.4,3.003,1.201
			C190.121,303.598,190.506,304.672,190.506,306.02z"/>
		<path fill="#010101" d="M243.768,331.186h-18.369v-2.08c0.664-0.02,1.519-0.088,2.563-0.205c1.044-0.117,1.763-0.283,2.153-0.498
			c0.605-0.371,1.05-0.797,1.333-1.275c0.282-0.479,0.425-1.078,0.425-1.801v-30.234h-0.439l-14.18,35.42h-1.465l-13.506-36.152
			h-0.381v24.814c0,2.402,0.151,4.229,0.454,5.479c0.303,1.25,0.766,2.148,1.392,2.695c0.429,0.41,1.318,0.801,2.666,1.172
			s2.227,0.566,2.637,0.586v2.08h-16.787v-2.08c0.879-0.078,1.802-0.225,2.769-0.439s1.714-0.537,2.241-0.967
			c0.684-0.547,1.152-1.387,1.406-2.52c0.253-1.133,0.381-3.027,0.381-5.684v-21.27c0-1.23-0.146-2.236-0.439-3.018
			s-0.713-1.416-1.26-1.904c-0.605-0.527-1.348-0.918-2.227-1.172s-1.748-0.4-2.607-0.439v-2.08h14.18l11.895,31.172l10.166-26.074
			c0.371-0.957,0.688-1.959,0.952-3.004s0.405-1.742,0.425-2.094h13.564v2.08c-0.547,0.02-1.245,0.107-2.095,0.264
			s-1.47,0.303-1.86,0.439c-0.664,0.234-1.113,0.625-1.348,1.172s-0.352,1.143-0.352,1.787v29.971c0,0.684,0.117,1.26,0.352,1.729
			s0.684,0.879,1.348,1.23c0.352,0.195,0.977,0.375,1.875,0.541s1.611,0.26,2.139,0.279V331.186z"/>
		<path fill="#010101" d="M275.965,330.658c-0.918,0.332-1.725,0.6-2.417,0.805c-0.693,0.205-1.479,0.309-2.358,0.309
			c-1.523,0-2.739-0.357-3.647-1.07s-1.489-1.752-1.743-3.119h-0.176c-1.27,1.406-2.633,2.48-4.087,3.223
			c-1.455,0.742-3.208,1.113-5.259,1.113c-2.168,0-3.951-0.664-5.347-1.992c-1.396-1.328-2.095-3.066-2.095-5.215
			c0-1.113,0.156-2.109,0.469-2.988s0.781-1.67,1.406-2.373c0.488-0.586,1.133-1.109,1.934-1.568s1.553-0.824,2.256-1.098
			c0.879-0.332,2.661-0.947,5.347-1.846c2.685-0.898,4.497-1.602,5.435-2.109v-2.9c0-0.254-0.055-0.742-0.161-1.465
			c-0.107-0.723-0.337-1.406-0.688-2.051c-0.391-0.723-0.942-1.354-1.655-1.891c-0.714-0.537-1.724-0.805-3.032-0.805
			c-0.898,0-1.733,0.15-2.505,0.453c-0.772,0.303-1.313,0.621-1.626,0.953c0,0.391,0.092,0.967,0.278,1.729
			c0.186,0.762,0.278,1.465,0.278,2.109c0,0.684-0.308,1.309-0.923,1.875s-1.47,0.85-2.563,0.85c-0.977,0-1.695-0.348-2.153-1.041
			c-0.459-0.693-0.688-1.469-0.688-2.328c0-0.898,0.317-1.758,0.952-2.578c0.634-0.82,1.46-1.553,2.476-2.197
			c0.879-0.547,1.943-1.012,3.193-1.393s2.471-0.57,3.662-0.57c1.641,0,3.071,0.111,4.292,0.336c1.22,0.225,2.329,0.709,3.325,1.451
			c0.996,0.723,1.753,1.703,2.271,2.943c0.517,1.24,0.776,2.838,0.776,4.791c0,2.793-0.029,5.268-0.088,7.426
			s-0.088,4.518-0.088,7.076c0,0.762,0.132,1.367,0.396,1.816s0.669,0.83,1.216,1.143c0.293,0.176,0.757,0.273,1.392,0.293
			c0.634,0.02,1.284,0.029,1.948,0.029V330.658z M265.741,315.189c-1.66,0.488-3.115,0.967-4.365,1.436s-2.412,1.055-3.486,1.758
			c-0.977,0.664-1.748,1.449-2.314,2.357s-0.85,1.988-0.85,3.238c0,1.621,0.425,2.812,1.274,3.574s1.929,1.143,3.237,1.143
			c1.387,0,2.607-0.338,3.662-1.012s1.943-1.469,2.666-2.387L265.741,315.189z"/>
		<path fill="#010101" d="M310.741,331.186h-14.15v-1.934c0.449-0.039,0.941-0.078,1.48-0.117c0.537-0.039,0.98-0.117,1.332-0.234
			c0.547-0.176,0.953-0.484,1.217-0.924s0.395-1.01,0.395-1.713V311.41c0-2.051-0.482-3.633-1.449-4.746s-2.145-1.67-3.531-1.67
			c-1.035,0-1.982,0.16-2.842,0.482s-1.621,0.719-2.285,1.188c-0.645,0.449-1.157,0.932-1.538,1.449s-0.659,0.934-0.835,1.246
			v16.611c0,0.664,0.137,1.211,0.41,1.641s0.684,0.762,1.23,0.996c0.41,0.195,0.854,0.342,1.333,0.439
			c0.479,0.098,0.972,0.166,1.479,0.205v1.934h-14.15v-1.934c0.449-0.039,0.912-0.078,1.392-0.117
			c0.479-0.039,0.894-0.117,1.245-0.234c0.547-0.176,0.952-0.484,1.216-0.924s0.396-1.01,0.396-1.713v-17.842
			c0-0.664-0.143-1.275-0.425-1.832c-0.283-0.557-0.679-1.01-1.187-1.361c-0.371-0.234-0.811-0.406-1.318-0.514
			s-1.055-0.18-1.641-0.219v-1.904l9.609-0.645l0.41,0.41v4.072h0.146c0.469-0.469,1.055-1.031,1.758-1.686s1.367-1.186,1.992-1.596
			c0.723-0.469,1.582-0.859,2.578-1.172s2.119-0.469,3.369-0.469c2.773,0,4.83,0.863,6.168,2.592c1.336,1.729,2.006,4.029,2.006,6.9
			v15.029c0,0.684,0.117,1.234,0.352,1.654s0.635,0.748,1.201,0.982c0.469,0.195,0.875,0.332,1.217,0.41s0.814,0.137,1.42,0.176
			V331.186z"/>
		<path fill="#010101" d="M341.649,330.658c-0.918,0.332-1.725,0.6-2.418,0.805s-1.479,0.309-2.357,0.309
			c-1.523,0-2.74-0.357-3.648-1.07s-1.488-1.752-1.742-3.119h-0.176c-1.27,1.406-2.633,2.48-4.088,3.223s-3.207,1.113-5.258,1.113
			c-2.168,0-3.951-0.664-5.348-1.992s-2.094-3.066-2.094-5.215c0-1.113,0.156-2.109,0.469-2.988s0.781-1.67,1.406-2.373
			c0.488-0.586,1.133-1.109,1.934-1.568s1.553-0.824,2.256-1.098c0.879-0.332,2.66-0.947,5.346-1.846s4.498-1.602,5.436-2.109v-2.9
			c0-0.254-0.055-0.742-0.162-1.465s-0.336-1.406-0.688-2.051c-0.391-0.723-0.943-1.354-1.656-1.891s-1.723-0.805-3.031-0.805
			c-0.898,0-1.734,0.15-2.506,0.453s-1.312,0.621-1.625,0.953c0,0.391,0.092,0.967,0.277,1.729s0.279,1.465,0.279,2.109
			c0,0.684-0.309,1.309-0.924,1.875s-1.469,0.85-2.562,0.85c-0.977,0-1.695-0.348-2.154-1.041s-0.688-1.469-0.688-2.328
			c0-0.898,0.316-1.758,0.951-2.578s1.461-1.553,2.477-2.197c0.879-0.547,1.943-1.012,3.193-1.393s2.471-0.57,3.662-0.57
			c1.641,0,3.07,0.111,4.291,0.336s2.33,0.709,3.326,1.451c0.996,0.723,1.752,1.703,2.27,2.943s0.777,2.838,0.777,4.791
			c0,2.793-0.029,5.268-0.088,7.426s-0.088,4.518-0.088,7.076c0,0.762,0.131,1.367,0.395,1.816s0.67,0.83,1.217,1.143
			c0.293,0.176,0.756,0.273,1.391,0.293s1.285,0.029,1.949,0.029V330.658z M331.424,315.189c-1.66,0.488-3.115,0.967-4.365,1.436
			s-2.412,1.055-3.486,1.758c-0.977,0.664-1.748,1.449-2.314,2.357s-0.85,1.988-0.85,3.238c0,1.621,0.424,2.812,1.273,3.574
			s1.93,1.143,3.238,1.143c1.387,0,2.607-0.338,3.662-1.012s1.943-1.469,2.666-2.387L331.424,315.189z"/>
		<path fill="#010101" d="M369.276,328.197c0.781,0.742,1.396,1.582,1.846,2.52s0.674,2.1,0.674,3.486s-0.303,2.689-0.908,3.91
			s-1.523,2.281-2.754,3.18c-1.309,0.918-2.871,1.631-4.688,2.139s-4.062,0.762-6.738,0.762c-4.375,0-7.646-0.641-9.814-1.92
			s-3.252-3.148-3.252-5.609c0-1.992,0.781-3.564,2.344-4.717s3.555-1.777,5.977-1.875v-0.41c-0.586-0.176-1.191-0.396-1.816-0.66
			s-1.162-0.57-1.611-0.922c-0.508-0.41-0.918-0.895-1.23-1.451s-0.469-1.244-0.469-2.064c0-1.035,0.365-1.988,1.098-2.857
			s1.842-1.615,3.326-2.24v-0.439c-1.875-0.879-3.33-2.008-4.365-3.385s-1.553-2.973-1.553-4.789c0-2.734,1.02-4.98,3.061-6.738
			s4.654-2.637,7.838-2.637c0.879,0,1.752,0.088,2.621,0.264s1.754,0.4,2.652,0.674h10.078v2.812h-6.797v0.176
			c0.723,0.84,1.26,1.768,1.611,2.783s0.527,2.012,0.527,2.988c0,2.539-1.031,4.688-3.092,6.445s-4.457,2.637-7.191,2.637h-3.545
			c-0.449,0.156-0.918,0.439-1.406,0.85s-0.732,0.967-0.732,1.67c0,0.723,0.205,1.273,0.615,1.654s0.908,0.641,1.494,0.777
			c0.566,0.156,1.225,0.254,1.977,0.293s1.529,0.068,2.33,0.088c0.859,0.02,2.035,0.078,3.529,0.176s2.555,0.156,3.18,0.176
			c0.898,0.039,1.801,0.254,2.709,0.645S368.534,327.514,369.276,328.197z M366.991,335.287c0-1.094-0.254-1.992-0.762-2.695
			s-1.279-1.182-2.314-1.436c-0.547-0.078-1.67-0.166-3.369-0.264s-3.672-0.146-5.918-0.146c-2.109,0.41-3.609,1.098-4.498,2.064
			s-1.332,2.213-1.332,3.736c0,0.684,0.146,1.338,0.439,1.963s0.801,1.201,1.523,1.729c0.684,0.508,1.602,0.922,2.754,1.244
			s2.559,0.484,4.219,0.484c2.871,0,5.131-0.553,6.781-1.656S366.991,337.533,366.991,335.287z M361.366,311.059
			c0-2.285-0.465-4.107-1.393-5.465s-2.23-2.035-3.91-2.035c-0.918,0-1.705,0.189-2.359,0.57s-1.186,0.924-1.596,1.627
			c-0.391,0.645-0.67,1.42-0.836,2.328s-0.248,1.842-0.248,2.799c0,2.168,0.473,3.936,1.42,5.303s2.174,2.051,3.678,2.051
			c1.68,0,2.973-0.68,3.881-2.037S361.366,313.129,361.366,311.059z"/>
		<path fill="#010101" d="M400.741,324.389c-1.211,2.305-2.832,4.141-4.863,5.508s-4.365,2.051-7.002,2.051
			c-2.324,0-4.361-0.41-6.109-1.23s-3.188-1.934-4.32-3.34s-1.979-3.047-2.535-4.922s-0.834-3.857-0.834-5.947
			c0-1.875,0.297-3.717,0.893-5.523s1.471-3.432,2.623-4.877c1.113-1.387,2.494-2.506,4.145-3.355s3.502-1.273,5.553-1.273
			c2.109,0,3.916,0.332,5.42,0.996s2.725,1.572,3.662,2.725c0.898,1.094,1.566,2.383,2.006,3.867s0.66,3.096,0.66,4.834v1.934
			h-19.131c0,1.895,0.18,3.613,0.541,5.156s0.934,2.9,1.715,4.072c0.762,1.133,1.758,2.025,2.988,2.68s2.695,0.982,4.395,0.982
			c1.738,0,3.236-0.406,4.496-1.217s2.477-2.27,3.648-4.379L400.741,324.389z M394.266,313.373c0-1.094-0.094-2.266-0.279-3.516
			s-0.482-2.295-0.893-3.135c-0.449-0.898-1.064-1.631-1.846-2.197s-1.787-0.85-3.018-0.85c-2.051,0-3.756,0.854-5.113,2.562
			s-2.094,4.088-2.211,7.135H394.266z"/>
		<path fill="#010101" d="M426.2,306.02c0,0.996-0.244,1.879-0.732,2.65s-1.24,1.158-2.256,1.158c-1.094,0-1.93-0.283-2.506-0.85
			s-0.863-1.191-0.863-1.875c0-0.43,0.033-0.82,0.102-1.172s0.133-0.703,0.191-1.055c-0.918,0-1.992,0.371-3.223,1.113
			s-2.275,1.797-3.135,3.164v16.816c0,0.684,0.131,1.24,0.395,1.67s0.68,0.752,1.246,0.967c0.488,0.195,1.117,0.342,1.889,0.439
			s1.441,0.166,2.008,0.205v1.934h-15.234v-1.934c0.449-0.039,0.912-0.078,1.391-0.117s0.895-0.117,1.246-0.234
			c0.547-0.176,0.951-0.484,1.215-0.924s0.396-1.01,0.396-1.713v-17.842c0-0.605-0.143-1.201-0.426-1.787s-0.678-1.055-1.186-1.406
			c-0.371-0.234-0.811-0.406-1.318-0.514s-1.055-0.18-1.641-0.219v-1.904l9.609-0.645l0.41,0.41v4.072h0.146
			c1.211-1.582,2.559-2.783,4.043-3.604s2.842-1.23,4.072-1.23s2.23,0.4,3.002,1.201S426.2,304.672,426.2,306.02z"/>
	</g>
</g>
</svg>
