<?xml version="1.0" encoding="utf-8"?>
<!-- Generator: Adobe Illustrator 16.0.0, SVG Export Plug-In . SVG Version: 6.00 Build 0)  -->
<!DOCTYPE svg PUBLIC "-//W3C//DTD SVG 1.1//EN" "http://www.w3.org/Graphics/SVG/1.1/DTD/svg11.dtd">
<svg version="1.1" id="Layer_1" xmlns="http://www.w3.org/2000/svg" xmlns:xlink="http://www.w3.org/1999/xlink" x="0px" y="0px"
	 width="645.333px" height="155px" viewBox="0 0 645.333 155" enable-background="new 0 0 645.333 155" xml:space="preserve">
<g>
	<g>
		<path fill="#FFFFFF" d="M20.088,33.923c1.695-0.349,3.508-0.323,5.291-0.528c2.484-0.322,4.413-1.553,5.732-3.187
			c0.525-0.674,0.966-1.375,1.287-2.161c-0.411,0.056-0.85,0.112-1.287,0.171c-3.306,0.41-7.162,0.852-9.827,0.852
			c0-1.29-0.144-2.575-0.377-3.922c-0.205-0.995-0.498-1.93-0.819-2.833c-0.497-1.378-0.993-2.692-1.113-4.152l-0.086-0.206
			c-0.759,1.487-0.876,3.331-1.667,4.942c-1.464,3.919-2.252,8.359,0.146,12.013C18.216,34.418,19.123,34.125,20.088,33.923z"/>
		<path fill="#FFFFFF" d="M31.111,25.879c0.993-0.291,1.898-0.674,2.719-1.199c0.235-0.117,0.438-0.262,0.612-0.41
			c1.67-1.607,3.425-4.121,3.425-6.433l-4.037,1.227l-2.719,0.851l-2.895,0.877c0.701-4.625-0.058-9.006-1.346-13.422l-0.058-0.266
			c-2.517,6.758-6.375,12.724-3.1,20.12C26.112,26.757,28.773,26.549,31.111,25.879z"/>
		<path fill="#FFFFFF" d="M33.83,17.109c1.694-0.88,3.159-2.049,4.152-3.888c1.053-1.758,1.811-3.981,2.546-6.116
			c0.404-1.255,0.845-2.484,1.314-3.592c-0.47,0.056-0.91,0.114-1.314,0.232c-2.661,0.732-4.476,2.598-6.698,4.445
			c-0.031,0.056-0.087,0.09-0.146,0.143c-0.935,1.231-1.872,2.871-2.572,4.595c-0.789,1.958-1.319,4.059-1.287,5.933
			c0.439-0.175,0.849-0.351,1.287-0.5C32.046,17.986,32.979,17.577,33.83,17.109z"/>
		<path fill="#FFFFFF" d="M11.372,47.311c2.022-2.691,5.676-3.07,8.364-4.94c0.118-0.059,0.233-0.146,0.352-0.232
			c2.073-1.521,3.715-3.627,4.209-6.26c-1.345,0.029-2.807,0.324-4.209,0.703c-2.253,0.583-4.387,1.344-5.819,1.546
			c0.525-3.448-1.785-6.604-2.254-9.82l-0.171-0.206c-0.411,1.169-0.85,2.312-1.317,3.507c-0.758,2.018-1.52,4.154-1.959,6.519
			c-0.235,2.868,0.439,6.23,1.959,8.277C10.786,46.757,11.081,47.075,11.372,47.311z"/>
		<path fill="#FFFFFF" d="M10.526,86.993c0.467,0.407,0.995,0.813,1.576,1.192c3.072-5.141,6.992-10.934,5.205-17.861h-0.145
			c-1.548,3.713-4.503,6.55-6.637,9.503c-0.145,0.231-0.293,0.435-0.44,0.646L2.134,72.05c0.117,3.744,1.403,8.152,4.24,10.996
			C8.042,84.333,9.062,85.705,10.526,86.993z"/>
		<path fill="#FFFFFF" d="M9.854,77.02c0.232-0.317,0.469-0.674,0.673-0.993c3.596-5.176,6.781-11.548,6.053-18.801l-0.059-0.149
			c0,0-0.173,0.149-0.173,0.469c-1.9,2.401-4.245,4.855-5.821,7.485c-0.44,0.733-0.819,1.491-1.14,2.283
			c-1.726-3.333-4.883-5.031-6.727-7.985c-0.204,0.383,0,0.646-0.319,1.169C1.873,67.429,5.203,72.631,9.854,77.02z"/>
		<path fill="#FFFFFF" d="M9.27,62.371c0.292-0.966,0.729-1.841,1.257-2.66c0.73-1.084,1.606-2.076,2.604-3.069
			c3.271-3.361,5.758-6.027,6.957-10.354c0.058-0.232,0.115-0.469,0.173-0.704c-0.058,0.033-0.115,0.059-0.173,0.059
			c-3.772,1.407-7.222,3.073-9.562,5.616c-0.204,0.235-0.41,0.498-0.614,0.76l-4.3-7.456c-0.525,2.43-0.788,4.764-1.168,7.456
			C4.005,56.525,6.168,59.975,9.27,62.371z"/>
		<path fill="#FFFFFF" d="M130.528,11.463c0.786,1.287,1.279,2.838,2.251,4.123c0.551,0.467,1.054,0.964,1.574,1.466
			c1.435,1.284,2.87,2.393,4.417,2.457c0-2.457-0.149-5.005-1.171-7.576c-0.875-1.578-1.957-2.92-3.246-4.066
			c-2.015-1.812-4.499-3.1-7.333-3.858c-0.093-0.03-0.151-0.03-0.208-0.06L126.491,4.1c0.175,0.173,0.348,0.379,0.529,0.584
			C128.653,6.636,129.505,8.891,130.528,11.463z"/>
		<path fill="#FFFFFF" d="M157.723,53.86c-1.408-1.023-2.608-2.017-4.246-2.955c-1.432-0.696-3.388-1.87-4.68-2.073
			c-0.085-0.03-0.174-0.03-0.262-0.03c0.03,0.619,0.118,1.2,0.262,1.783c1.172,4.912,5.734,7.838,8.926,11.64
			c0.58,0.73,1.134,1.461,1.609,2.252c3.384-4.768,6.338-11.642,4.175-18.25l-0.146-0.056l-0.32,0.056l-4.884,7.982
			C158.012,54.096,157.865,53.979,157.723,53.86z"/>
		<path fill="#FFFFFF" d="M157.723,66.262c-1.79-2.312-4.883-4.152-5.968-6.464l-0.411-0.087c-0.501,2.571,0.147,5.409,1.375,7.864
			c1.437,3.216,3.596,5.524,5.004,8.688c0.261,0.611,0.495,1.223,0.702,1.9c4.291-4.564,8.097-9.564,8.151-16.319l-7.893,6.054
			C158.451,67.313,158.101,66.757,157.723,66.262z"/>
		<path fill="#FFFFFF" d="M141.635,30.613c-1.544-0.085-3.099-0.026-4.471,0.064c1.17,1.959,2.718,3.246,4.471,4.205
			c2.227,1.234,4.767,1.935,7.162,2.752c1.146,0.408,2.286,0.847,3.338,1.402c1.729-5.791,1.931-12.133-1.113-17.658
			c-1.053,0.964-1.754,2.252-2.225,3.684c-0.726,2.279-0.845,4.885-0.726,6.958C146.168,31.116,143.886,30.738,141.635,30.613z"/>
		<path fill="#FFFFFF" d="M134.354,20.878l-4.383-0.847c0.174,0.38,0.384,0.38,0.436,0.938c1.145,1.665,2.399,3.184,3.947,4.354
			c1.467,1.141,3.13,1.961,5.118,2.396c0.727,0.151,1.46,0.267,2.163,0.413c1.582,0.32,3.07,0.672,4.268,1.346
			c-0.084-0.469,0-0.73-0.203-1.375c0.963-6.492,0.382-12.576-2.427-18.625h-0.145c-0.611,0.816-1.112,1.751-1.493,2.748
			c-1.198,3.041-1.437,6.729-1.34,9.801L134.354,20.878z"/>
		<path fill="#FFFFFF" d="M144.236,38.658c1.023,2.047,1.99,3.654,3.6,5.381c0.318,0.262,0.644,0.525,0.961,0.791
			c1.086,0.96,2.046,2.073,3.395,3.065c1.81,0.964,3.656,2.371,5.322,3.277c0.09-0.09,0.146-0.177,0.209-0.296
			c3.621-5.785,2.719-12.921,0.109-19.352l-0.109-0.206c0,0,0,0,0,0.03c-1.499,3.392-3.545,6.462-3.807,10.32l-5.119-1.605
			L144.236,38.658z"/>
		<path fill="#FFFFFF" d="M158.742,102.456c-0.352,0-0.674,0.032-1.02,0.058c-3.279,0.269-6.408,0.911-8.926,2.34
			c-0.144,0.062-0.262,0.147-0.409,0.236l-3.971-11.314l-0.061-0.202c-0.267,0.202-0.586,0.524-0.847,0.961
			c-4.477,5.354,2.134,12.753-0.562,18.683c1.288-1.226,2.954-1.55,4.888-1.925c0.318-0.146,0.644-0.265,0.961-0.413
			c3.395-1.432,6.64-3.006,8.926-5.521c0.788-0.885,1.457-1.877,1.983-3.039C159.332,102.254,159.124,102.254,158.742,102.456z"/>
		<path fill="#FFFFFF" d="M127.834,135.586c-0.263-0.115-0.553-0.202-0.813-0.294c-2.638-0.845-5.295-1.55-7.925-1.783
			c0,0,0-0.176,0.14-0.438c2.751-3.475,0.707-9.268,3.864-12.602l-0.087-0.057c-3.594,1.578-5.849,4.385-7.607,7.635
			c-1.636,2.979-2.867,6.34-4.412,9.379c1.459,0.061,2.954,0.354,4.412,0.737c3.333,0.844,6.729,2.101,10.117,1.663
			c0.498-0.117,0.999-0.234,1.498-0.352c2.13-0.646,3.942-1.76,4.994-3.565C130.729,136.025,129.383,135.702,127.834,135.586z"/>
		<path fill="#FFFFFF" d="M10.526,96.96c1.932,1.286,4.444,2.106,6.781,2.399c2.312-5.586,3.774-11.698,1.581-17.549l-0.173-0.113
			c-0.586,1.173-0.704,2.428-1.408,3.537c-1.283,2.104-2.66,4.031-3.8,6.283c-0.994-0.697-1.986-1.342-2.981-1.953
			c-2.078-1.289-4.063-2.571-5.817-4.854c0.816,4.181,1.87,8.299,4.411,11.11C9.561,96.229,10.026,96.611,10.526,96.96z"/>
		<path fill="#FFFFFF" d="M141.635,115.936c-0.644,0.18-1.251,0.354-1.84,0.562c1.288-3.863-0.523-7.576-0.323-11.406l-0.059-0.149
			c-3.301,2.517-4.273,6.377-5.06,10.384c-0.549,2.897-1.052,5.849-2.339,8.303c0.791-0.176,1.552-0.289,2.339-0.403
			c0.819-0.121,1.671-0.207,2.545-0.234c1.638-0.389,3.248-0.79,4.736-1.289c2.782-0.963,5.264-2.227,7.162-4.126
			c0.883-0.871,1.641-1.897,2.225-3.07c-0.694,0.091-1.463,0.179-2.225,0.267C146.401,115.062,143.886,115.382,141.635,115.936z"/>
		<path fill="#FFFFFF" d="M164.851,75.269c-3.095,1.342-4.991,3.771-7.128,5.845c-0.062,0.056-0.093,0.09-0.119,0.142l-6.26-9.643
			h-0.231c-3.601,7.515,3.597,12.513,4.032,19.148c0.874-0.698,1.727-1.461,2.578-2.28c1.609-1.521,3.239-3.188,4.993-4.646
			c2.197-2.255,3.741-6.113,3.363-9.532C165.618,74.504,165.349,74.885,164.851,75.269z"/>
		<path fill="#FFFFFF" d="M153.218,94.299c-1.463-3.538-3.86-7.017-3.979-11.049l-0.12-0.146l-0.259,0.146
			c-0.03,0.029-0.062,0.086-0.062,0.111c-0.174,0.386-0.377,0.615-0.726,1.029c-2.253,5.147-1.228,10.959,0.726,15.987
			c0.321,0.828,0.647,1.615,1.029,2.402c2.28-2.197,5.288-3.011,7.896-4.708c0.231-0.178,0.462-0.319,0.702-0.5
			c2.455-2.189,3.739-5.523,4.118-8.622c-1.663,0.727-3.305,1.346-4.82,2.103C156.085,91.843,154.531,92.842,153.218,94.299z"/>
		<path fill="#FFFFFF" d="M141.635,126.611c-2.455,0.207-4.854-0.471-7.281-0.82c-1.606-0.205-3.245-0.262-4.911,0.206
			c-0.06-0.265-0.06-0.442,0-0.699c2.365-3.485,0.702-8.597,2.896-11.819c-0.759,0-1.083,0.5-1.933,0.646
			c-1.459,0.82-2.544,1.93-3.386,3.275c-2.518,3.891-2.954,9.474-5.034,13.535c1.607-0.121,3.305,0,5.034,0.152
			c2.422,0.199,4.906,0.491,7.333,0.169c1.521-0.202,2.986-0.646,4.417-1.461c0.818-0.614,2.312-1.433,2.864-2.43
			c0.147-0.259,0.236-0.524,0.205-0.783C141.782,126.583,141.725,126.583,141.635,126.611z"/>
		<path fill="#FFFFFF" d="M22.752,110.705c0,0,0-0.18,0.085-0.438c1.46-6.088,3.448-13.016-0.646-18.219h-0.143l-1.96,6.34
			l-1.372,4.393c-2.344-1.229-5.5-1.87-8.189-2.256c-0.994-0.146-1.933-0.232-2.749-0.319c0.204,0.44,0.322,0.496,0.79,1.021
			c0.553,1.09,1.201,2.017,1.959,2.836c2.514,2.727,5.994,4.149,9.562,5.586C20.964,110.001,21.87,110.35,22.752,110.705z"/>
		<path fill="#FFFFFF" d="M107.921,138.979c-0.118-0.117-0.118-0.321-0.118-0.525c1.291-0.876,1.932-2.542,2.957-4.092
			c0.233-2.689,1.284-5.73,1.842-7.901c-5.527,1.792-8.71,6.988-11.93,11.549c-9.764,5.269-21.636,6.292-32.046,1.298
			c-5.32-4.303-7.046-11.175-13.744-13.309c-0.059,0.054-0.115,0.054-0.205,0.054c0,0.408,0.146,0.734,0.469,0.97
			c0.585,4.65,3.275,8.424,4.94,11.196c-3.01,0.731-5.819,2.048-8.741,2.808c-1.697,0.439-3.391,0.707-5.2,0.529
			c0.52,0.112,0.903,0.379,1.486,0.967c1.169,0.816,2.429,1.398,3.714,1.779c4.942,1.494,10.582-0.029,15.117-2.687
			c3.829,0,8.068,1.226,10.848,2.889l-10.469,3.278c0,0,0,0.322,0,0.584c0.5,1.406,0.821,3.219,2.31,3.919
			c3.922-2.046,8.479-3.656,12.398-5.786c5.296,0.254,10.177,4.498,15.001,6.223c0.44-0.172,0.849-0.26,0.901-0.437l1.673-3.222
			c-2.574-2.426-7.575-2.248-10.412-4.121c3.479-1.664,7.576-2.164,11.438-3.274c3.416-0.053,5.083,2.836,8.417,3.688
			c2.074,0.498,4.56,0.524,6.839,0.026c1.639-0.349,3.194-0.993,4.42-1.905c-1.7-0.375-3.069-1.078-4.42-1.81
			C113.1,140.413,110.963,139.008,107.921,138.979z"/>
		<path fill="#FFFFFF" d="M31.111,121.172c0.966-0.058,1.898-0.146,2.719-0.23c0.089,0,0.175,0,0.235,0
			c-0.087-0.239-0.146-0.472-0.235-0.703c-1.197-3.836-1.491-8.396-2.719-12.168c-0.732-2.247-1.813-4.266-3.597-5.668h-0.322
			l-1.286,11.959l-5.818-1.022l-3.947-0.705c1.578,0.992,2.687,2.603,3.947,4.181c0.788,0.998,1.667,1.987,2.749,2.746
			C25.001,121.172,28.217,121.316,31.111,121.172z"/>
		<path fill="#FFFFFF" d="M45.323,129.652c-1.639-3.979-2.691-8.48-4.795-12.047c-1.318-2.225-3.044-4.094-5.558-5.232
			c1.286,3.04,1.667,7.507,1.607,10.729c-0.907-0.113-1.813-0.086-2.748,0.029c-0.906,0.092-1.811,0.262-2.719,0.495
			c-2.138,0.474-4.24,1.083-6.172,1.083c1.668,1.546,3.803,2.864,6.172,3.835c0.876,0.349,1.783,0.638,2.719,0.903
			c2.193,0.613,4.474,0.906,6.698,0.877C42.163,130.324,43.802,130.087,45.323,129.652z"/>
		<path fill="#FFFFFF" d="M56.549,136.609c-1.812-3.479-3.099-7.571-5.204-10.818c-1.466-2.252-3.304-4.093-6.021-5.057h-0.147
			c2.193,3.651,1.488,7.896,2.691,11.81c-2.282,0.733-4.854,1.671-7.339,2.048c-1.696,0.266-3.365,0.266-4.798-0.23
			c1.288,1.136,2.573,2.046,4.123,3.014c0.205,0.172,0.438,0.318,0.675,0.464c3.363,2.104,7.13,1.468,10.816,0.379
			C53.098,137.691,54.855,137.085,56.549,136.609z"/>
	</g>
	<g>
		<path fill="#FFFFFF" d="M73.555,80.074l-0.974,13.688h-35.97v-2.303c0.519-0.044,1.27-0.119,2.254-0.229
			c0.983-0.106,1.67-0.248,2.06-0.422c0.648-0.279,1.119-0.69,1.411-1.231c0.292-0.54,0.438-1.232,0.438-2.075V54.548
			c0-0.735-0.125-1.384-0.373-1.946c-0.249-0.562-0.74-1.016-1.476-1.362c-0.498-0.26-1.195-0.514-2.092-0.762
			c-0.897-0.249-1.639-0.395-2.222-0.438v-2.303h19.428v2.303c-0.605,0.022-1.389,0.13-2.351,0.325
			c-0.963,0.194-1.66,0.368-2.093,0.519c-0.735,0.259-1.238,0.703-1.508,1.33c-0.271,0.628-0.405,1.298-0.405,2.012v30.91
			c0,1.427,0.069,2.535,0.21,3.325c0.141,0.789,0.471,1.398,0.99,1.832c0.497,0.389,1.237,0.645,2.222,0.762
			c0.983,0.12,2.362,0.18,4.135,0.18c0.8,0,1.633-0.021,2.498-0.064c0.864-0.043,1.687-0.13,2.465-0.26
			c0.757-0.13,1.454-0.309,2.092-0.535c0.638-0.227,1.108-0.514,1.411-0.859c0.887-0.994,1.919-2.502,3.098-4.524
			c1.179-2.021,1.995-3.659,2.449-4.913h2.303V80.074z"/>
		<path fill="#FFFFFF" d="M132.1,93.762h-20.336v-2.303c0.734-0.021,1.681-0.098,2.837-0.229c1.156-0.129,1.951-0.312,2.385-0.551
			c0.67-0.41,1.162-0.882,1.476-1.41c0.313-0.53,0.47-1.194,0.47-1.996V53.802h-0.486l-15.698,39.214h-1.622L86.172,52.99H85.75
			v27.473c0,2.66,0.167,4.684,0.502,6.064c0.336,1.386,0.85,2.38,1.542,2.984c0.475,0.454,1.459,0.887,2.951,1.297
			c1.492,0.411,2.465,0.629,2.919,0.649v2.303H75.079v-2.303c0.973-0.087,1.994-0.249,3.065-0.487
			c1.07-0.236,1.896-0.594,2.48-1.068c0.757-0.605,1.275-1.536,1.558-2.791c0.28-1.254,0.421-3.352,0.421-6.291V57.272
			c0-1.362-0.162-2.476-0.486-3.341c-0.324-0.865-0.789-1.567-1.395-2.108c-0.671-0.584-1.492-1.017-2.465-1.297
			c-0.974-0.281-1.936-0.443-2.887-0.487v-2.303h15.698l13.169,34.511l11.255-28.867c0.41-1.06,0.762-2.167,1.054-3.325
			c0.292-1.156,0.449-1.93,0.471-2.319h15.018v2.303c-0.605,0.022-1.379,0.119-2.319,0.292c-0.94,0.173-1.628,0.335-2.06,0.486
			c-0.735,0.26-1.232,0.692-1.492,1.298c-0.259,0.604-0.39,1.265-0.39,1.979v33.182c0,0.758,0.131,1.395,0.39,1.914
			c0.26,0.519,0.757,0.973,1.492,1.361c0.389,0.217,1.08,0.416,2.076,0.6c0.994,0.186,1.783,0.287,2.367,0.31L132.1,93.762
			L132.1,93.762z"/>
	</g>
</g>
<g>
	<path fill="#FFFFFF" d="M214.209,79.223l-0.972,13.664h-35.908v-2.299c0.518-0.043,1.268-0.12,2.25-0.227
		c0.982-0.107,1.667-0.248,2.056-0.422c0.647-0.279,1.117-0.689,1.408-1.229c0.292-0.54,0.438-1.229,0.438-2.071V53.74
		c0-0.733-0.125-1.381-0.373-1.943c-0.248-0.561-0.74-1.015-1.473-1.359c-0.497-0.259-1.193-0.514-2.088-0.762
		c-0.896-0.248-1.635-0.393-2.218-0.436v-2.3h19.395v2.299c-0.604,0.021-1.388,0.13-2.348,0.324s-1.656,0.367-2.088,0.518
		c-0.734,0.259-1.235,0.701-1.505,1.328c-0.27,0.626-0.405,1.295-0.405,2.007v30.857c0,1.424,0.07,2.529,0.21,3.317
		c0.141,0.787,0.469,1.399,0.987,1.831c0.497,0.387,1.235,0.641,2.218,0.76c0.982,0.118,2.358,0.178,4.128,0.178
		c0.798,0,1.63-0.021,2.494-0.064c0.863-0.042,1.684-0.129,2.461-0.259c0.755-0.13,1.451-0.308,2.088-0.535
		c0.636-0.228,1.106-0.511,1.408-0.856c0.885-0.992,1.915-2.5,3.092-4.519c1.176-2.019,1.991-3.651,2.444-4.903H214.209z"/>
	<path fill="#FFFFFF" d="M246.75,92.303c-1.015,0.367-1.906,0.663-2.671,0.891c-0.766,0.227-1.635,0.34-2.606,0.34
		c-1.684,0-3.027-0.395-4.031-1.182c-1.003-0.789-1.646-1.938-1.926-3.449h-0.195c-1.403,1.556-2.909,2.742-4.517,3.562
		c-1.608,0.821-3.545,1.23-5.812,1.23c-2.396,0-4.366-0.734-5.909-2.201c-1.543-1.469-2.315-3.391-2.315-5.764
		c0-1.23,0.173-2.332,0.519-3.304c0.345-0.972,0.862-1.846,1.554-2.622c0.539-0.647,1.252-1.228,2.137-1.734
		c0.885-0.506,1.716-0.911,2.493-1.212c0.972-0.367,2.941-1.047,5.909-2.04c2.968-0.993,4.97-1.77,6.006-2.332V69.28
		c0-0.281-0.06-0.82-0.178-1.619c-0.119-0.798-0.373-1.554-0.761-2.266c-0.433-0.799-1.042-1.496-1.83-2.089
		c-0.789-0.594-1.905-0.89-3.352-0.89c-0.993,0-1.916,0.167-2.768,0.501c-0.854,0.334-1.453,0.687-1.797,1.053
		c0,0.432,0.102,1.068,0.308,1.91c0.205,0.842,0.308,1.619,0.308,2.332c0,0.755-0.34,1.446-1.02,2.072s-1.624,0.939-2.833,0.939
		c-1.08,0-1.874-0.385-2.38-1.151c-0.507-0.767-0.761-1.624-0.761-2.573c0-0.993,0.351-1.943,1.053-2.85
		c0.701-0.907,1.613-1.716,2.736-2.428c0.971-0.605,2.148-1.119,3.529-1.539c1.381-0.421,2.731-0.63,4.047-0.63
		c1.813,0,3.395,0.123,4.744,0.371c1.348,0.249,2.574,0.784,3.675,1.604c1.101,0.799,1.938,1.882,2.51,3.253
		c0.571,1.371,0.858,3.137,0.858,5.295c0,3.087-0.032,5.821-0.097,8.207c-0.065,2.385-0.098,4.993-0.098,7.819
		c0,0.842,0.146,1.512,0.438,2.008s0.739,0.918,1.344,1.263c0.324,0.194,0.836,0.302,1.538,0.323
		c0.701,0.022,1.419,0.033,2.153,0.033v2.074H246.75z M235.45,75.207c-1.835,0.54-3.444,1.069-4.825,1.587s-2.667,1.166-3.853,1.942
		c-1.08,0.733-1.932,1.602-2.558,2.605c-0.626,1.003-0.938,2.197-0.938,3.579c0,1.792,0.469,3.109,1.408,3.95
		c0.939,0.842,2.131,1.263,3.578,1.263c1.533,0,2.882-0.373,4.047-1.118c1.166-0.744,2.148-1.623,2.946-2.638L235.45,75.207z"/>
	<path fill="#FFFFFF" d="M284.893,92.303l-11.139,0.715l-0.486-0.455v-2.979l-0.259-0.064c-1.122,1.252-2.509,2.276-4.161,3.075
		c-1.65,0.8-3.352,1.198-5.1,1.198c-1.812,0-3.567-0.406-5.261-1.215c-1.695-0.811-3.168-1.947-4.419-3.415
		c-1.275-1.49-2.283-3.282-3.028-5.375c-0.745-2.095-1.117-4.404-1.117-6.929c0-2.31,0.399-4.501,1.198-6.573
		c0.799-2.072,1.899-3.885,3.303-5.439c1.317-1.446,2.931-2.602,4.841-3.465c1.91-0.863,3.857-1.295,5.845-1.295
		c1.489,0,2.951,0.188,4.388,0.565c1.436,0.377,2.671,0.859,3.707,1.442V50.988c0-0.907-0.151-1.733-0.453-2.479
		c-0.303-0.744-0.725-1.31-1.264-1.698c-0.604-0.41-1.419-0.708-2.444-0.892s-2.132-0.317-3.318-0.404v-2.007l13.048-0.745
		l0.486,0.485v43.064c0,0.756,0.146,1.396,0.438,1.924c0.291,0.529,0.717,0.979,1.279,1.346c0.409,0.258,1.003,0.42,1.781,0.484
		c0.775,0.065,1.488,0.107,2.137,0.131v2.105H284.893z M273.204,86.702V68.019c-0.174-0.561-0.453-1.166-0.842-1.813
		c-0.389-0.647-0.875-1.241-1.457-1.781c-0.627-0.54-1.359-0.989-2.201-1.344c-0.843-0.356-1.826-0.534-2.947-0.534
		c-1.295,0-2.488,0.335-3.578,1.004c-1.09,0.669-2.056,1.63-2.898,2.882c-0.798,1.209-1.43,2.746-1.894,4.613
		c-0.464,1.867-0.696,3.935-0.696,6.202c0,1.812,0.173,3.458,0.518,4.938c0.345,1.478,0.928,2.854,1.749,4.129
		c0.756,1.209,1.722,2.181,2.898,2.914c1.176,0.734,2.573,1.102,4.192,1.102c1.727,0,3.157-0.378,4.291-1.133
		C271.471,88.439,272.426,87.607,273.204,86.702z"/>
	<path fill="#FFFFFF" d="M322.969,92.303l-11.137,0.715l-0.486-0.455v-2.979l-0.26-0.064c-1.121,1.252-2.51,2.276-4.16,3.075
		c-1.65,0.8-3.352,1.198-5.1,1.198c-1.812,0-3.566-0.406-5.262-1.215c-1.695-0.811-3.168-1.947-4.42-3.415
		c-1.273-1.49-2.283-3.282-3.027-5.375c-0.744-2.095-1.117-4.404-1.117-6.929c0-2.31,0.4-4.501,1.199-6.573
		c0.797-2.072,1.898-3.885,3.303-5.439c1.314-1.446,2.93-2.602,4.84-3.465c1.91-0.863,3.857-1.295,5.844-1.295
		c1.49,0,2.951,0.188,4.389,0.565c1.436,0.377,2.67,0.859,3.707,1.442V50.988c0-0.907-0.152-1.733-0.453-2.479
		c-0.303-0.744-0.726-1.31-1.264-1.698c-0.604-0.41-1.421-0.708-2.445-0.892c-1.023-0.184-2.131-0.317-3.318-0.404v-2.007
		l13.049-0.745l0.486,0.485v43.064c0,0.756,0.146,1.396,0.438,1.924c0.291,0.529,0.717,0.979,1.276,1.346
		c0.41,0.258,1.004,0.42,1.781,0.484c0.777,0.065,1.49,0.107,2.137,0.131L322.969,92.303L322.969,92.303z M311.282,86.702V68.019
		c-0.174-0.561-0.453-1.166-0.842-1.813c-0.39-0.647-0.875-1.241-1.457-1.781c-0.627-0.54-1.359-0.989-2.203-1.344
		c-0.842-0.356-1.824-0.534-2.945-0.534c-1.295,0-2.488,0.335-3.578,1.004c-1.09,0.669-2.057,1.63-2.898,2.882
		c-0.799,1.209-1.43,2.746-1.895,4.613c-0.465,1.867-0.695,3.935-0.695,6.202c0,1.812,0.172,3.458,0.518,4.938
		c0.346,1.478,0.928,2.854,1.75,4.129c0.754,1.209,1.721,2.181,2.896,2.914c1.178,0.734,2.574,1.102,4.193,1.102
		c1.727,0,3.158-0.378,4.291-1.133C309.549,88.439,310.504,87.607,311.282,86.702z"/>
	<path fill="#FFFFFF" d="M354.442,85.374c-1.338,2.547-3.129,4.576-5.375,6.087c-2.244,1.51-4.824,2.268-7.738,2.268
		c-2.568,0-4.818-0.453-6.75-1.36c-1.932-0.906-3.525-2.138-4.777-3.691s-2.184-3.366-2.799-5.438s-0.924-4.264-0.924-6.573
		c0-2.072,0.328-4.107,0.988-6.104c0.658-1.997,1.623-3.793,2.896-5.39c1.23-1.533,2.758-2.77,4.582-3.708
		c1.824-0.939,3.869-1.407,6.137-1.407c2.33,0,4.326,0.367,5.99,1.101c1.662,0.734,3.01,1.738,4.047,3.011
		c0.992,1.208,1.732,2.634,2.217,4.274c0.486,1.641,0.73,3.421,0.73,5.343v2.137H332.52c0,2.094,0.199,3.993,0.602,5.699
		c0.396,1.705,1.029,3.205,1.895,4.5c0.842,1.252,1.941,2.238,3.303,2.961c1.359,0.723,2.979,1.086,4.855,1.086
		c1.922,0,3.578-0.449,4.971-1.345s2.736-2.509,4.031-4.839L354.442,85.374z M347.288,73.2c0-1.208-0.104-2.504-0.309-3.885
		s-0.533-2.537-0.988-3.465c-0.496-0.993-1.176-1.802-2.039-2.428s-1.975-0.939-3.336-0.939c-2.266,0-4.148,0.943-5.648,2.832
		c-1.502,1.889-2.314,4.518-2.443,7.885H347.288z"/>
	<path fill="#FFFFFF" d="M382.581,65.073c0,1.101-0.271,2.077-0.811,2.929s-1.371,1.28-2.492,1.28c-1.209,0-2.133-0.313-2.77-0.939
		s-0.955-1.316-0.955-2.072c0-0.475,0.037-0.907,0.113-1.295s0.146-0.777,0.211-1.166c-1.016,0-2.201,0.411-3.562,1.23
		c-1.359,0.821-2.514,1.986-3.463,3.497v18.585c0,0.755,0.145,1.371,0.436,1.846c0.293,0.474,0.75,0.831,1.377,1.068
		c0.539,0.217,1.234,0.378,2.088,0.485c0.855,0.107,1.592,0.184,2.219,0.227v2.138h-16.838v-2.138
		c0.496-0.043,1.01-0.086,1.539-0.128c0.527-0.045,0.986-0.13,1.375-0.261c0.605-0.193,1.053-0.534,1.344-1.021
		c0.291-0.485,0.439-1.114,0.439-1.894V67.728c0-0.669-0.156-1.327-0.469-1.975c-0.314-0.647-0.75-1.166-1.312-1.554
		c-0.41-0.259-0.895-0.449-1.457-0.567c-0.561-0.119-1.164-0.199-1.812-0.242v-2.104l10.619-0.713l0.455,0.454v4.501h0.16
		c1.34-1.749,2.828-3.076,4.469-3.983c1.641-0.907,3.141-1.36,4.502-1.36c1.359,0,2.465,0.443,3.318,1.328
		C382.155,62.396,382.581,63.583,382.581,65.073z"/>
	<path fill="#FFFFFF" d="M441.444,92.887h-20.301v-2.299c0.732-0.021,1.678-0.097,2.834-0.227c1.152-0.131,1.947-0.313,2.379-0.551
		c0.67-0.41,1.16-0.881,1.475-1.41c0.311-0.528,0.469-1.19,0.469-1.989V52.995h-0.484l-15.672,39.146h-1.617l-14.93-39.956h-0.42
		v27.424c0,2.656,0.166,4.675,0.5,6.056c0.336,1.381,0.85,2.375,1.539,2.979c0.477,0.453,1.457,0.886,2.947,1.295
		c1.488,0.41,2.461,0.625,2.914,0.647v2.299h-18.555v-2.299c0.973-0.087,1.992-0.25,3.061-0.485
		c1.068-0.237,1.895-0.595,2.477-1.068c0.758-0.604,1.273-1.533,1.557-2.785c0.277-1.252,0.42-3.346,0.42-6.282V56.46
		c0-1.36-0.16-2.472-0.484-3.335c-0.324-0.864-0.789-1.565-1.393-2.105c-0.67-0.583-1.49-1.015-2.461-1.295
		c-0.973-0.28-1.934-0.442-2.881-0.485v-2.3h15.67l13.145,34.453l11.234-28.818c0.412-1.058,0.762-2.165,1.053-3.32
		c0.291-1.155,0.447-1.926,0.471-2.314h14.99v2.299c-0.604,0.021-1.375,0.119-2.312,0.292c-0.939,0.173-1.625,0.334-2.059,0.485
		c-0.73,0.26-1.229,0.691-1.49,1.295c-0.258,0.604-0.387,1.263-0.387,1.975V86.41c0,0.755,0.129,1.392,0.387,1.91
		c0.262,0.518,0.76,0.972,1.49,1.359c0.393,0.217,1.08,0.415,2.072,0.598c0.994,0.185,1.781,0.287,2.363,0.31V92.887z"/>
	<path fill="#FFFFFF" d="M477.03,92.303c-1.016,0.367-1.906,0.663-2.672,0.891c-0.766,0.227-1.635,0.34-2.605,0.34
		c-1.686,0-3.029-0.395-4.033-1.182c-1.004-0.789-1.645-1.938-1.926-3.449H465.6c-1.404,1.556-2.91,2.742-4.518,3.562
		c-1.607,0.821-3.545,1.23-5.811,1.23c-2.396,0-4.367-0.734-5.91-2.201c-1.545-1.469-2.314-3.391-2.314-5.764
		c0-1.23,0.172-2.332,0.518-3.304s0.863-1.846,1.555-2.622c0.539-0.647,1.25-1.228,2.137-1.734c0.885-0.506,1.717-0.911,2.492-1.212
		c0.971-0.367,2.941-1.047,5.91-2.04c2.967-0.993,4.969-1.77,6.006-2.332V69.28c0-0.281-0.061-0.82-0.18-1.619
		c-0.117-0.798-0.371-1.554-0.76-2.266c-0.432-0.799-1.041-1.496-1.83-2.089c-0.789-0.594-1.904-0.89-3.352-0.89
		c-0.992,0-1.914,0.167-2.768,0.501c-0.855,0.334-1.451,0.687-1.797,1.053c0,0.432,0.102,1.068,0.309,1.91
		c0.205,0.842,0.307,1.619,0.307,2.332c0,0.755-0.34,1.446-1.02,2.072s-1.625,0.939-2.832,0.939c-1.082,0-1.875-0.385-2.381-1.151
		c-0.508-0.767-0.764-1.624-0.764-2.573c0-0.993,0.352-1.943,1.055-2.85c0.701-0.907,1.611-1.716,2.734-2.428
		c0.973-0.605,2.148-1.119,3.529-1.539c1.383-0.421,2.73-0.63,4.047-0.63c1.812,0,3.396,0.123,4.744,0.371
		c1.348,0.249,2.574,0.784,3.676,1.604c1.102,0.799,1.938,1.882,2.51,3.253c0.568,1.371,0.857,3.137,0.857,5.295
		c0,3.087-0.033,5.821-0.098,8.207c-0.064,2.385-0.098,4.993-0.098,7.819c0,0.842,0.146,1.512,0.438,2.008
		c0.293,0.496,0.738,0.918,1.344,1.263c0.322,0.194,0.836,0.302,1.537,0.323c0.701,0.022,1.418,0.033,2.154,0.033v2.074H477.03z
		 M465.729,75.207c-1.834,0.54-3.441,1.069-4.824,1.587c-1.381,0.518-2.666,1.166-3.854,1.942c-1.078,0.733-1.932,1.602-2.559,2.605
		c-0.625,1.003-0.939,2.197-0.939,3.579c0,1.792,0.471,3.109,1.408,3.95c0.939,0.842,2.133,1.263,3.578,1.263
		c1.531,0,2.883-0.373,4.047-1.118c1.166-0.744,2.146-1.623,2.945-2.638L465.729,75.207z"/>
	<path fill="#FFFFFF" d="M515.461,92.887h-15.639v-2.138c0.496-0.043,1.043-0.086,1.639-0.128c0.592-0.045,1.082-0.13,1.471-0.26
		c0.605-0.194,1.055-0.535,1.344-1.021c0.293-0.486,0.438-1.115,0.438-1.893V71.03c0-2.266-0.533-4.015-1.602-5.245
		s-2.371-1.846-3.902-1.846c-1.145,0-2.191,0.177-3.141,0.533c-0.951,0.356-1.791,0.794-2.525,1.312
		c-0.713,0.496-1.279,1.029-1.701,1.602c-0.42,0.572-0.729,1.032-0.922,1.377v18.358c0,0.734,0.15,1.339,0.453,1.812
		c0.303,0.475,0.754,0.842,1.359,1.102c0.453,0.217,0.943,0.378,1.473,0.486c0.529,0.106,1.074,0.183,1.637,0.226v2.138h-15.639
		v-2.138c0.496-0.043,1.006-0.086,1.537-0.128c0.527-0.045,0.988-0.13,1.375-0.26c0.605-0.194,1.055-0.535,1.344-1.021
		c0.293-0.486,0.439-1.115,0.439-1.893V67.728c0-0.734-0.158-1.409-0.473-2.024c-0.311-0.615-0.75-1.116-1.311-1.505
		c-0.41-0.259-0.895-0.449-1.455-0.567c-0.562-0.119-1.166-0.199-1.814-0.242v-2.104l10.619-0.713l0.455,0.454v4.501h0.162
		c0.518-0.519,1.166-1.14,1.941-1.863c0.779-0.723,1.512-1.311,2.201-1.763c0.799-0.519,1.75-0.951,2.852-1.295
		c1.1-0.345,2.34-0.518,3.723-0.518c3.064,0,5.338,0.954,6.818,2.864c1.475,1.911,2.215,4.453,2.215,7.626v16.61
		c0,0.754,0.129,1.363,0.389,1.828c0.262,0.465,0.701,0.826,1.328,1.086c0.52,0.215,0.967,0.366,1.344,0.453
		c0.381,0.086,0.9,0.15,1.568,0.193V92.887L515.461,92.887z"/>
	<path fill="#FFFFFF" d="M549.624,92.303c-1.016,0.367-1.906,0.663-2.672,0.891c-0.766,0.227-1.637,0.34-2.607,0.34
		c-1.682,0-3.025-0.395-4.029-1.182c-1.006-0.789-1.646-1.938-1.928-3.449h-0.193c-1.402,1.556-2.908,2.742-4.518,3.562
		c-1.607,0.821-3.545,1.23-5.811,1.23c-2.396,0-4.365-0.734-5.91-2.201c-1.543-1.469-2.312-3.391-2.312-5.764
		c0-1.23,0.172-2.332,0.516-3.304c0.348-0.972,0.863-1.846,1.555-2.622c0.539-0.647,1.254-1.228,2.137-1.734
		c0.889-0.506,1.719-0.911,2.494-1.212c0.975-0.367,2.941-1.047,5.908-2.04c2.969-0.993,4.971-1.77,6.006-2.332V69.28
		c0-0.281-0.059-0.82-0.178-1.619c-0.119-0.798-0.371-1.554-0.76-2.266c-0.432-0.799-1.043-1.496-1.83-2.089
		c-0.789-0.594-1.904-0.89-3.352-0.89c-0.99,0-1.916,0.167-2.77,0.501s-1.449,0.687-1.795,1.053c0,0.432,0.102,1.068,0.309,1.91
		c0.203,0.842,0.307,1.619,0.307,2.332c0,0.755-0.34,1.446-1.021,2.072c-0.678,0.626-1.623,0.939-2.832,0.939
		c-1.078,0-1.873-0.385-2.381-1.151c-0.508-0.767-0.758-1.624-0.758-2.573c0-0.993,0.348-1.943,1.049-2.85
		c0.701-0.907,1.615-1.716,2.736-2.428c0.975-0.605,2.15-1.119,3.531-1.539c1.381-0.421,2.73-0.63,4.047-0.63
		c1.814,0,3.393,0.123,4.744,0.371c1.348,0.249,2.574,0.784,3.674,1.604c1.102,0.799,1.938,1.882,2.508,3.253
		c0.574,1.371,0.859,3.137,0.859,5.295c0,3.087-0.031,5.821-0.098,8.207c-0.064,2.385-0.096,4.993-0.096,7.819
		c0,0.842,0.145,1.512,0.438,2.008c0.289,0.496,0.74,0.918,1.344,1.263c0.324,0.194,0.836,0.302,1.537,0.323
		c0.701,0.022,1.42,0.033,2.154,0.033v2.074H549.624z M538.323,75.207c-1.836,0.54-3.443,1.069-4.824,1.587
		s-2.666,1.166-3.852,1.942c-1.082,0.733-1.934,1.602-2.559,2.605c-0.627,1.003-0.941,2.197-0.941,3.579
		c0,1.792,0.471,3.109,1.408,3.95c0.939,0.842,2.133,1.263,3.578,1.263c1.533,0,2.883-0.373,4.049-1.118
		c1.166-0.744,2.146-1.623,2.945-2.638L538.323,75.207z"/>
	<path fill="#FFFFFF" d="M580.157,89.583c0.863,0.819,1.543,1.749,2.041,2.784c0.496,1.035,0.744,2.32,0.744,3.854
		s-0.336,2.973-1.004,4.322c-0.67,1.35-1.686,2.521-3.045,3.516c-1.445,1.015-3.172,1.801-5.18,2.361
		c-2.008,0.562-4.49,0.844-7.447,0.844c-4.834,0-8.451-0.709-10.848-2.121c-2.396-1.414-3.594-3.48-3.594-6.201
		c0-2.202,0.861-3.94,2.59-5.213c1.729-1.273,3.93-1.965,6.604-2.072v-0.454c-0.645-0.195-1.314-0.438-2.008-0.729
		c-0.689-0.291-1.285-0.631-1.777-1.019c-0.562-0.454-1.018-0.989-1.359-1.604c-0.348-0.615-0.521-1.375-0.521-2.281
		c0-1.145,0.404-2.197,1.217-3.157c0.809-0.961,2.033-1.786,3.674-2.476v-0.486c-2.07-0.971-3.68-2.219-4.824-3.741
		c-1.143-1.522-1.717-3.285-1.717-5.293c0-3.022,1.127-5.504,3.383-7.447c2.258-1.942,5.145-2.914,8.662-2.914
		c0.973,0,1.938,0.097,2.895,0.291c0.963,0.194,1.941,0.442,2.936,0.745h11.137v3.108h-7.512v0.194
		c0.799,0.928,1.393,1.954,1.781,3.076c0.387,1.122,0.584,2.223,0.584,3.303c0,2.806-1.143,5.181-3.418,7.123
		c-2.277,1.943-4.928,2.915-7.947,2.915h-3.92c-0.496,0.172-1.014,0.485-1.553,0.938c-0.541,0.454-0.812,1.069-0.812,1.846
		c0,0.8,0.23,1.407,0.682,1.829c0.451,0.42,1.006,0.708,1.65,0.859c0.627,0.173,1.355,0.281,2.188,0.324
		c0.828,0.043,1.688,0.076,2.572,0.098c0.951,0.021,2.25,0.086,3.902,0.193c1.65,0.108,2.82,0.174,3.512,0.194
		c0.994,0.043,1.992,0.281,2.994,0.712C578.422,88.234,579.336,88.829,580.157,89.583z M577.629,97.419
		c0-1.208-0.279-2.202-0.84-2.979c-0.562-0.776-1.414-1.307-2.559-1.586c-0.605-0.086-1.848-0.184-3.727-0.291
		c-1.877-0.107-4.059-0.162-6.539-0.162c-2.332,0.453-3.99,1.213-4.971,2.281c-0.982,1.068-1.473,2.445-1.473,4.129
		c0,0.756,0.162,1.479,0.486,2.17c0.324,0.69,0.883,1.328,1.682,1.91c0.756,0.562,1.771,1.019,3.045,1.375
		c1.273,0.355,2.828,0.535,4.662,0.535c3.172,0,5.67-0.611,7.494-1.832C576.717,101.751,577.629,99.9,577.629,97.419z
		 M571.415,70.642c0-2.525-0.514-4.539-1.541-6.04c-1.023-1.5-2.465-2.25-4.318-2.25c-1.016,0-1.887,0.209-2.607,0.63
		c-0.727,0.421-1.312,1.021-1.766,1.798c-0.432,0.712-0.738,1.569-0.924,2.573c-0.184,1.004-0.271,2.036-0.271,3.094
		c0,2.396,0.52,4.35,1.566,5.86c1.047,1.511,2.404,2.267,4.066,2.267c1.855,0,3.283-0.751,4.287-2.251
		C570.913,74.823,571.415,72.93,571.415,70.642z"/>
	<path fill="#FFFFFF" d="M614.93,85.374c-1.338,2.547-3.129,4.576-5.373,6.087c-2.246,1.51-4.824,2.268-7.74,2.268
		c-2.568,0-4.82-0.453-6.752-1.36c-1.932-0.906-3.521-2.138-4.773-3.691s-2.188-3.366-2.801-5.438
		c-0.617-2.072-0.924-4.264-0.924-6.573c0-2.072,0.328-4.107,0.988-6.104c0.656-1.997,1.623-3.793,2.898-5.39
		c1.229-1.533,2.756-2.77,4.58-3.708c1.824-0.939,3.871-1.407,6.137-1.407c2.332,0,4.328,0.367,5.99,1.101
		c1.662,0.734,3.01,1.738,4.047,3.011c0.992,1.208,1.729,2.634,2.217,4.274c0.486,1.641,0.73,3.421,0.73,5.343v2.137H593.01
		c0,2.094,0.197,3.993,0.6,5.699c0.396,1.705,1.029,3.205,1.895,4.5c0.842,1.252,1.943,2.238,3.303,2.961s2.979,1.086,4.857,1.086
		c1.92,0,3.576-0.449,4.969-1.345s2.736-2.509,4.031-4.839L614.93,85.374z M607.776,73.2c0-1.208-0.104-2.504-0.309-3.885
		s-0.533-2.537-0.988-3.465c-0.496-0.993-1.176-1.802-2.039-2.428s-1.975-0.939-3.334-0.939c-2.266,0-4.152,0.943-5.652,2.832
		s-2.314,4.518-2.441,7.885H607.776z"/>
	<path fill="#FFFFFF" d="M643.069,65.073c0,1.101-0.27,2.077-0.811,2.929c-0.539,0.853-1.371,1.28-2.49,1.28
		c-1.211,0-2.135-0.313-2.771-0.939c-0.635-0.626-0.953-1.316-0.953-2.072c0-0.475,0.037-0.907,0.111-1.295s0.146-0.777,0.211-1.166
		c-1.014,0-2.201,0.411-3.562,1.23c-1.357,0.821-2.514,1.986-3.463,3.497v18.585c0,0.755,0.146,1.371,0.438,1.846
		c0.291,0.474,0.752,0.831,1.379,1.068c0.539,0.217,1.232,0.378,2.086,0.485s1.592,0.184,2.219,0.227v2.138h-16.838v-2.138
		c0.498-0.043,1.008-0.086,1.537-0.128c0.529-0.045,0.99-0.13,1.379-0.261c0.604-0.193,1.049-0.534,1.342-1.021
		c0.291-0.485,0.438-1.114,0.438-1.894V67.728c0-0.669-0.156-1.327-0.471-1.975c-0.312-0.647-0.748-1.166-1.309-1.554
		c-0.412-0.259-0.896-0.449-1.457-0.567c-0.562-0.119-1.166-0.199-1.812-0.242v-2.104l10.619-0.713l0.453,0.454v4.501h0.162
		c1.338-1.749,2.828-3.076,4.467-3.983c1.643-0.907,3.143-1.36,4.502-1.36s2.465,0.443,3.316,1.328
		C642.641,62.396,643.069,63.583,643.069,65.073z"/>
</g>
</svg>
